# xmcd
#
# Track frame offsets: 
#        182
#        20537
#        42575
#        68255
#        83917
#        105142
#        129417
#        148397
#        169230
#        186005
#
# Disc length: 2652 seconds
#
# Revision: 6
# Processed by: cddbd v1.5.2PL0 Copyright (c) Steve Scherf et al.
# Submitted via: ExactAudioCopy v1.0b1
#
DISCID=800a5a0a
DTITLE=Paul Pena - New Train
DYEAR=2000
DGENRE=Blues
TTITLE0=Gonna Move
TTITLE1=New Train
TTITLE2=Jet Airliner
TTITLE3=Wait On What You Want
TTITLE4=Venutian Lady
TTITLE5=Cosmic Mirror
TTITLE6=Let's Move And Groove Together
TTITLE7=Indian Boy
TTITLE8=A Bit Of All Right
TTITLE9=Taking Your Love Down
EXTD=YEAR: 2000 ID3G:   0
EXTT0=
EXTT1=
EXTT2=
EXTT3=
EXTT4=
EXTT5=
EXTT6=
EXTT7=
EXTT8=
EXTT9=
PLAYORDER=
